/vscmnt/brussel_pixiu_data/_data_brussel/112/vsc11236/PredSimResults/SUBJ11opt3D/expIG/worker_15.mot
version=1
nRows=4
nColumns=50
inDegrees=yes
endheader
                time	         pelvis_tilt	         pelvis_list	     pelvis_rotation	           pelvis_tx	           pelvis_ty	           pelvis_tz	       hip_flexion_r	     hip_adduction_r	      hip_rotation_r	        knee_angle_r	       ankle_angle_r	         mtp_angle_r	       hip_flexion_l	     hip_adduction_l	      hip_rotation_l	        knee_angle_l	       ankle_angle_l	         mtp_angle_l	    lumbar_extension	      lumbar_bending	     lumbar_rotation	 ercspn_r/activation	 intobl_r/activation	 extobl_r/activation	    abd_r/activation	    add_r/activation	hamstrings_r/activation	bifemsh_r/activation	glut_max_r/activation	iliopsoas_r/activation	rect_fem_r/activation	  vasti_r/activation	gastroc_r/activation	 soleus_r/activation	tib_ant_r/activation	 ercspn_l/activation	 intobl_l/activation	 extobl_l/activation	    abd_l/activation	    add_l/activation	hamstrings_l/activation	bifemsh_l/activation	glut_max_l/activation	iliopsoas_l/activation	rect_fem_l/activation	  vasti_l/activation	gastroc_l/activation	 soleus_l/activation	tib_ant_l/activation	
          0.44753628	        -10.79733811	          4.89243958	         -7.67799119	          0.89507256	          0.92137723	          0.00374178	        -11.03142845	         -5.86920921	          1.44370143	        -14.01379735	          2.93990106	         43.17508283	         39.33598990	          0.96233953	         -6.75769526	         -5.98535154	          5.09220442	          0.38780116	        -10.22931176	         -4.54310001	          8.03449610	          0.05099324	          0.00999999	          0.00999999	          0.02303165	          0.22088206	          0.02303165	          0.28770492	          0.02004184	          0.89122517	          0.00999999	          0.01149178	          0.21810301	          0.24145392	          0.01602034	          0.15481688	          0.18047179	          0.01744014	          0.11367150	          0.56382837	          0.20143148	          0.56128778	          0.04857307	          0.13675179	          0.02672170	          0.00999999	          0.01744014	          0.01517618	          0.70136672	
          0.45648700	        -10.72909888	          4.83995854	         -7.75247765	          0.91688328	          0.91904499	          0.00320325	        -10.96351086	         -5.96159076	          1.17285435	        -16.40627346	          1.57217545	         45.10975739	         39.13711176	          1.05482959	         -7.06693383	         -7.47707407	          4.28570994	          0.43220589	         -9.78528369	         -4.61662376	          8.20055909	          0.04437364	          0.00999999	          0.00999999	          0.02004184	          0.28495336	          0.02004184	          0.25035698	          0.01744014	          0.93187587	          0.00999999	          0.00999999	          0.18979033	          0.21010997	          0.01394068	          0.13471958	          0.15704414	          0.01517618	          0.09891542	          0.55660869	          0.17528298	          0.48842513	          0.26007410	          0.11899958	          0.02325286	          0.00999999	          0.01517618	          0.01320611	          0.81297022	
          0.46543773	        -10.63417523	          4.80729253	         -7.76912126	          0.93868185	          0.91679355	          0.00262137	        -10.53852776	         -6.07169409	          0.89529906	        -19.48758943	          0.34535120	         46.35227332	         38.82533723	          1.15509921	         -7.15480649	         -9.23519886	          3.30347890	          0.33080806	         -9.36995593	         -4.72108829	          8.28718286	          0.12304486	          0.00999999	          0.00999999	          0.01744014	          0.24796261	          0.01744014	          0.21785730	          0.01517618	          0.95733483	          0.00999999	          0.00999999	          0.16515301	          0.18283489	          0.01213100	          0.11723117	          0.18171434	          0.01320611	          0.22575847	          0.53186537	          0.15252891	          0.42502102	          0.40378487	          0.10355184	          0.02023433	          0.00999999	          0.01320610	          0.01149178	          0.88286590	
          0.47438846	        -10.51904023	          4.80941878	         -7.73060899	          0.96016036	          0.91486914	          0.00196143	         -9.68098229	         -6.22115578	          0.63503374	        -23.29496417	         -0.90126515	         46.91407975	         38.48050426	          1.31128962	         -7.21218300	        -10.93354215	          2.24875555	          0.29700879	         -9.01694311	         -4.87246600	          8.29589001	          0.12030704	          0.00999999	          0.01149178	          0.01517618	          0.21577375	          0.01517618	          0.20375310	          0.01320611	          0.86929705	          0.00999999	          0.00999999	          0.14371394	          0.15910048	          0.01055623	          0.11691075	          0.15812539	          0.01149178	          0.24802543	          0.46282214	          0.13272862	          0.36984761	          0.47183532	          0.09010943	          0.01760764	          0.00999999	          0.01149178	          0.00999999	          0.92664058	
